<svg width="32" height="32" fill="none" xmlns="http://www.w3.org/2000/svg"><path d="M21 16a4.9997 4.9997 0 01-5 5 4.9997 4.9997 0 01-5-5c0-.285.03-.5633.0817-.8333H9.3333v6.6616a.838.838 0 00.8384.8384H21.83a.8383.8383 0 00.8367-.8384v-6.6616h-1.7484c.0517.27.0817.5483.0817.8333zm-5 3.3333a3.3336 3.3336 0 003.0799-2.059 3.335 3.335 0 00-.7237-3.6333 3.3332 3.3332 0 00-2.3579-.976A3.3341 3.3341 0 1016 19.3333zM20 12.5h1.9983A.5019.5019 0 0022.5 12v-1.9983a.502.502 0 00-.5017-.5017H20a.5014.5014 0 00-.5017.5017V12c.0017.275.2267.5.5017.5zM16 0a16 16 0 100 31.9999A16 16 0 0016 0zm8.3333 22.4817c0 1.0183-.8333 1.8516-1.8516 1.8516H9.5183c-1.0183 0-1.8516-.8333-1.8516-1.8516V9.5183c0-1.0183.8333-1.8516 1.8516-1.8516h12.9634c1.0183 0 1.8516.8333 1.8516 1.8516v12.9634z" fill="#fff" fill-opacity=".3"/></svg>